<mxfile host="app.diagrams.net" modified="2023-12-11T03:22:38.367Z" agent="Mozilla/5.0 (Windows NT 10.0; Win64; x64) AppleWebKit/537.36 (KHTML, like Gecko) Chrome/120.0.0.0 Safari/537.36" etag="JFeW0--3XyjWIT49NmV2" version="22.1.7" type="device" pages="2">
  <diagram name="Page-1" id="b5b7bab2-c9e2-2cf4-8b2a-24fd1a2a6d21">
    <mxGraphModel dx="1120" dy="438" grid="1" gridSize="10" guides="1" tooltips="1" connect="1" arrows="1" fold="1" page="1" pageScale="1" pageWidth="827" pageHeight="1169" background="none" math="0" shadow="0">
      <root>
        <mxCell id="0" />
        <mxCell id="1" parent="0" />
        <mxCell id="VTu_6owPPKENYw1O4ueS-3" value="TORNEO_DATABASE" style="verticalAlign=top;align=left;spacingTop=8;spacingLeft=2;spacingRight=12;shape=cube;size=10;direction=south;fontStyle=4;html=1;whiteSpace=wrap;" vertex="1" parent="1">
          <mxGeometry x="260" y="50" width="150" height="70" as="geometry" />
        </mxCell>
        <mxCell id="VTu_6owPPKENYw1O4ueS-4" value="TORNEODAO" style="verticalAlign=top;align=left;spacingTop=8;spacingLeft=2;spacingRight=12;shape=cube;size=10;direction=south;fontStyle=4;html=1;whiteSpace=wrap;" vertex="1" parent="1">
          <mxGeometry x="250" y="200" width="150" height="70" as="geometry" />
        </mxCell>
        <mxCell id="VTu_6owPPKENYw1O4ueS-5" value="DAO.jar" style="html=1;dropTarget=0;whiteSpace=wrap;" vertex="1" parent="1">
          <mxGeometry x="70" y="260" width="140" height="70" as="geometry" />
        </mxCell>
        <mxCell id="VTu_6owPPKENYw1O4ueS-6" value="" style="shape=module;jettyWidth=8;jettyHeight=4;" vertex="1" parent="VTu_6owPPKENYw1O4ueS-5">
          <mxGeometry x="1" width="20" height="20" relative="1" as="geometry">
            <mxPoint x="-27" y="7" as="offset" />
          </mxGeometry>
        </mxCell>
        <mxCell id="VTu_6owPPKENYw1O4ueS-7" value="TORNEOWEB" style="verticalAlign=top;align=left;spacingTop=8;spacingLeft=2;spacingRight=12;shape=cube;size=10;direction=south;fontStyle=4;html=1;whiteSpace=wrap;" vertex="1" parent="1">
          <mxGeometry x="252.5" y="340" width="145" height="70" as="geometry" />
        </mxCell>
        <mxCell id="VTu_6owPPKENYw1O4ueS-8" value="Context.xml" style="html=1;dropTarget=0;whiteSpace=wrap;" vertex="1" parent="1">
          <mxGeometry x="450" y="130" width="150" height="80" as="geometry" />
        </mxCell>
        <mxCell id="VTu_6owPPKENYw1O4ueS-9" value="" style="shape=module;jettyWidth=8;jettyHeight=4;" vertex="1" parent="VTu_6owPPKENYw1O4ueS-8">
          <mxGeometry x="1" width="20" height="20" relative="1" as="geometry">
            <mxPoint x="-27" y="7" as="offset" />
          </mxGeometry>
        </mxCell>
        <mxCell id="VTu_6owPPKENYw1O4ueS-13" value="" style="endArrow=none;html=1;rounded=0;exitX=0.143;exitY=0.467;exitDx=0;exitDy=0;exitPerimeter=0;entryX=0;entryY=0;entryDx=70;entryDy=80;entryPerimeter=0;" edge="1" parent="1" source="VTu_6owPPKENYw1O4ueS-4" target="VTu_6owPPKENYw1O4ueS-3">
          <mxGeometry width="50" height="50" relative="1" as="geometry">
            <mxPoint x="270" y="170" as="sourcePoint" />
            <mxPoint x="320" y="120" as="targetPoint" />
          </mxGeometry>
        </mxCell>
        <mxCell id="VTu_6owPPKENYw1O4ueS-15" value="" style="endArrow=none;html=1;rounded=0;exitX=0;exitY=0;exitDx=0;exitDy=67.5;exitPerimeter=0;" edge="1" parent="1" source="VTu_6owPPKENYw1O4ueS-7">
          <mxGeometry width="50" height="50" relative="1" as="geometry">
            <mxPoint x="280" y="320" as="sourcePoint" />
            <mxPoint x="330" y="270" as="targetPoint" />
          </mxGeometry>
        </mxCell>
        <mxCell id="VTu_6owPPKENYw1O4ueS-16" value="" style="endArrow=none;html=1;rounded=0;entryX=0.25;entryY=1;entryDx=0;entryDy=0;" edge="1" parent="1" target="VTu_6owPPKENYw1O4ueS-8">
          <mxGeometry width="50" height="50" relative="1" as="geometry">
            <mxPoint x="400" y="370" as="sourcePoint" />
            <mxPoint x="480" y="220" as="targetPoint" />
            <Array as="points">
              <mxPoint x="490" y="370" />
            </Array>
          </mxGeometry>
        </mxCell>
        <mxCell id="VTu_6owPPKENYw1O4ueS-17" value="" style="endArrow=none;html=1;rounded=0;" edge="1" parent="1">
          <mxGeometry width="50" height="50" relative="1" as="geometry">
            <mxPoint x="240" y="370" as="sourcePoint" />
            <mxPoint x="140" y="330" as="targetPoint" />
            <Array as="points">
              <mxPoint x="140" y="370" />
            </Array>
          </mxGeometry>
        </mxCell>
        <mxCell id="VTu_6owPPKENYw1O4ueS-18" value="User Panel" style="verticalAlign=top;align=left;spacingTop=8;spacingLeft=2;spacingRight=12;shape=cube;size=10;direction=south;fontStyle=4;html=1;whiteSpace=wrap;" vertex="1" parent="1">
          <mxGeometry x="252.5" y="465" width="155" height="65" as="geometry" />
        </mxCell>
        <mxCell id="VTu_6owPPKENYw1O4ueS-19" value="" style="endArrow=none;html=1;rounded=0;" edge="1" parent="1">
          <mxGeometry width="50" height="50" relative="1" as="geometry">
            <mxPoint x="320" y="460" as="sourcePoint" />
            <mxPoint x="320" y="410" as="targetPoint" />
          </mxGeometry>
        </mxCell>
        <mxCell id="VTu_6owPPKENYw1O4ueS-20" value="Web.xml" style="html=1;dropTarget=0;whiteSpace=wrap;" vertex="1" parent="1">
          <mxGeometry x="450" y="260" width="140" height="50" as="geometry" />
        </mxCell>
        <mxCell id="VTu_6owPPKENYw1O4ueS-21" value="" style="shape=module;jettyWidth=8;jettyHeight=4;" vertex="1" parent="VTu_6owPPKENYw1O4ueS-20">
          <mxGeometry x="1" width="20" height="20" relative="1" as="geometry">
            <mxPoint x="-27" y="7" as="offset" />
          </mxGeometry>
        </mxCell>
      </root>
    </mxGraphModel>
  </diagram>
  <diagram id="1gtSXwBAHMC7y8qH6W31" name="Page-2">
    <mxGraphModel dx="1970" dy="472" grid="1" gridSize="10" guides="1" tooltips="1" connect="1" arrows="1" fold="1" page="1" pageScale="1" pageWidth="850" pageHeight="1100" math="0" shadow="0">
      <root>
        <mxCell id="0" />
        <mxCell id="1" parent="0" />
        <mxCell id="8KkZ0bILGNVB6a9e__ru-3" value="" style="edgeStyle=orthogonalEdgeStyle;rounded=0;orthogonalLoop=1;jettySize=auto;html=1;" edge="1" parent="1" source="8KkZ0bILGNVB6a9e__ru-1" target="8KkZ0bILGNVB6a9e__ru-2">
          <mxGeometry relative="1" as="geometry" />
        </mxCell>
        <mxCell id="8KkZ0bILGNVB6a9e__ru-38" style="edgeStyle=elbowEdgeStyle;shape=connector;rounded=0;orthogonalLoop=1;jettySize=auto;html=1;exitX=0;exitY=0.3333333333333333;exitDx=0;exitDy=0;exitPerimeter=0;entryX=1;entryY=0.5;entryDx=0;entryDy=0;labelBackgroundColor=default;strokeColor=default;align=center;verticalAlign=middle;fontFamily=Helvetica;fontSize=11;fontColor=default;endArrow=classic;" edge="1" parent="1" source="8KkZ0bILGNVB6a9e__ru-1" target="8KkZ0bILGNVB6a9e__ru-4">
          <mxGeometry relative="1" as="geometry" />
        </mxCell>
        <mxCell id="8KkZ0bILGNVB6a9e__ru-1" value="Jugador" style="shape=umlActor;verticalLabelPosition=bottom;verticalAlign=top;html=1;outlineConnect=0;strokeColor=#1C6FFF;" vertex="1" parent="1">
          <mxGeometry x="558" y="236" width="30" height="60" as="geometry" />
        </mxCell>
        <mxCell id="8KkZ0bILGNVB6a9e__ru-40" style="edgeStyle=elbowEdgeStyle;shape=connector;rounded=0;orthogonalLoop=1;jettySize=auto;html=1;exitX=1;exitY=0.3333333333333333;exitDx=0;exitDy=0;exitPerimeter=0;labelBackgroundColor=default;strokeColor=default;align=center;verticalAlign=middle;fontFamily=Helvetica;fontSize=11;fontColor=default;endArrow=classic;" edge="1" parent="1" source="8KkZ0bILGNVB6a9e__ru-2" target="8KkZ0bILGNVB6a9e__ru-6">
          <mxGeometry relative="1" as="geometry" />
        </mxCell>
        <mxCell id="8KkZ0bILGNVB6a9e__ru-41" style="edgeStyle=elbowEdgeStyle;shape=connector;rounded=0;orthogonalLoop=1;jettySize=auto;html=1;exitX=1;exitY=1;exitDx=0;exitDy=0;exitPerimeter=0;labelBackgroundColor=default;strokeColor=default;align=center;verticalAlign=middle;fontFamily=Helvetica;fontSize=11;fontColor=default;endArrow=classic;" edge="1" parent="1" source="8KkZ0bILGNVB6a9e__ru-2" target="8KkZ0bILGNVB6a9e__ru-10">
          <mxGeometry relative="1" as="geometry" />
        </mxCell>
        <mxCell id="8KkZ0bILGNVB6a9e__ru-42" style="edgeStyle=elbowEdgeStyle;shape=connector;rounded=0;orthogonalLoop=1;jettySize=auto;html=1;exitX=0;exitY=0.3333333333333333;exitDx=0;exitDy=0;exitPerimeter=0;labelBackgroundColor=default;strokeColor=default;align=center;verticalAlign=middle;fontFamily=Helvetica;fontSize=11;fontColor=default;endArrow=classic;" edge="1" parent="1" source="8KkZ0bILGNVB6a9e__ru-2">
          <mxGeometry relative="1" as="geometry">
            <mxPoint x="480" y="460" as="targetPoint" />
          </mxGeometry>
        </mxCell>
        <mxCell id="8KkZ0bILGNVB6a9e__ru-43" style="edgeStyle=elbowEdgeStyle;shape=connector;rounded=0;orthogonalLoop=1;jettySize=auto;html=1;exitX=0.25;exitY=0.1;exitDx=0;exitDy=0;exitPerimeter=0;labelBackgroundColor=default;strokeColor=default;align=center;verticalAlign=middle;fontFamily=Helvetica;fontSize=11;fontColor=default;endArrow=classic;" edge="1" parent="1" source="8KkZ0bILGNVB6a9e__ru-2" target="8KkZ0bILGNVB6a9e__ru-7">
          <mxGeometry relative="1" as="geometry" />
        </mxCell>
        <mxCell id="8KkZ0bILGNVB6a9e__ru-2" value="Usuario en general" style="shape=umlActor;verticalLabelPosition=bottom;verticalAlign=top;html=1;outlineConnect=0;strokeColor=#1C6FFF;" vertex="1" parent="1">
          <mxGeometry x="558" y="418" width="30" height="60" as="geometry" />
        </mxCell>
        <mxCell id="8KkZ0bILGNVB6a9e__ru-4" value="Unirse a un equipo" style="ellipse;whiteSpace=wrap;html=1;strokeColor=#3014BA;" vertex="1" parent="1">
          <mxGeometry x="398" y="156" width="120" height="80" as="geometry" />
        </mxCell>
        <mxCell id="8KkZ0bILGNVB6a9e__ru-5" value="Realizar incripción" style="ellipse;whiteSpace=wrap;html=1;strokeColor=#3014BA;" vertex="1" parent="1">
          <mxGeometry x="648" y="206" width="120" height="80" as="geometry" />
        </mxCell>
        <mxCell id="8KkZ0bILGNVB6a9e__ru-6" value="Consultar tabla de posiciones" style="ellipse;whiteSpace=wrap;html=1;strokeColor=#3014BA;" vertex="1" parent="1">
          <mxGeometry x="658" y="346" width="120" height="80" as="geometry" />
        </mxCell>
        <mxCell id="8KkZ0bILGNVB6a9e__ru-7" value="Consultar información general" style="ellipse;whiteSpace=wrap;html=1;strokeColor=#3014BA;" vertex="1" parent="1">
          <mxGeometry x="368" y="316" width="120" height="80" as="geometry" />
        </mxCell>
        <mxCell id="8KkZ0bILGNVB6a9e__ru-8" value="Consultar rol de juegos" style="ellipse;whiteSpace=wrap;html=1;strokeColor=#3718D6;" vertex="1" parent="1">
          <mxGeometry x="358" y="426" width="120" height="80" as="geometry" />
        </mxCell>
        <mxCell id="8KkZ0bILGNVB6a9e__ru-10" value="Consultar resultados de un grupo" style="ellipse;whiteSpace=wrap;html=1;strokeColor=#3014BA;" vertex="1" parent="1">
          <mxGeometry x="518" y="526" width="120" height="80" as="geometry" />
        </mxCell>
        <mxCell id="8KkZ0bILGNVB6a9e__ru-11" value="Se une a un equipo dando el token de autorización.&lt;br&gt;Un jugador puede pertenecer a más de un equipo siempre que a los equipos participen en torneos diferentes&amp;nbsp;" style="shape=note;whiteSpace=wrap;html=1;backgroundOutline=1;darkOpacity=0.05;" vertex="1" parent="1">
          <mxGeometry x="528" y="16" width="220" height="130" as="geometry" />
        </mxCell>
        <mxCell id="8KkZ0bILGNVB6a9e__ru-47" style="edgeStyle=elbowEdgeStyle;shape=connector;rounded=0;orthogonalLoop=1;jettySize=auto;html=1;exitX=1;exitY=0.3333333333333333;exitDx=0;exitDy=0;exitPerimeter=0;labelBackgroundColor=default;strokeColor=default;align=center;verticalAlign=middle;fontFamily=Helvetica;fontSize=11;fontColor=default;endArrow=classic;" edge="1" parent="1" source="8KkZ0bILGNVB6a9e__ru-13" target="8KkZ0bILGNVB6a9e__ru-19">
          <mxGeometry relative="1" as="geometry" />
        </mxCell>
        <mxCell id="8KkZ0bILGNVB6a9e__ru-48" style="edgeStyle=elbowEdgeStyle;shape=connector;rounded=0;orthogonalLoop=1;jettySize=auto;html=1;exitX=0.75;exitY=0.1;exitDx=0;exitDy=0;exitPerimeter=0;entryX=0;entryY=0.5;entryDx=0;entryDy=0;labelBackgroundColor=default;strokeColor=default;align=center;verticalAlign=middle;fontFamily=Helvetica;fontSize=11;fontColor=default;endArrow=classic;" edge="1" parent="1" source="8KkZ0bILGNVB6a9e__ru-13" target="8KkZ0bILGNVB6a9e__ru-17">
          <mxGeometry relative="1" as="geometry" />
        </mxCell>
        <mxCell id="8KkZ0bILGNVB6a9e__ru-57" style="edgeStyle=elbowEdgeStyle;shape=connector;rounded=0;orthogonalLoop=1;jettySize=auto;html=1;exitX=0;exitY=1;exitDx=0;exitDy=0;exitPerimeter=0;entryX=0;entryY=0.5;entryDx=0;entryDy=0;labelBackgroundColor=default;strokeColor=default;align=center;verticalAlign=middle;fontFamily=Helvetica;fontSize=11;fontColor=default;endArrow=classic;" edge="1" parent="1" source="8KkZ0bILGNVB6a9e__ru-13" target="8KkZ0bILGNVB6a9e__ru-29">
          <mxGeometry relative="1" as="geometry">
            <Array as="points">
              <mxPoint x="-150" y="440" />
            </Array>
          </mxGeometry>
        </mxCell>
        <mxCell id="8KkZ0bILGNVB6a9e__ru-13" value="Admin Torneos" style="shape=umlActor;verticalLabelPosition=bottom;verticalAlign=top;html=1;outlineConnect=0;fontFamily=Helvetica;fontSize=11;fontColor=default;strokeColor=#1C6FFF;" vertex="1" parent="1">
          <mxGeometry x="90" y="240" width="30" height="60" as="geometry" />
        </mxCell>
        <mxCell id="8KkZ0bILGNVB6a9e__ru-54" style="edgeStyle=elbowEdgeStyle;shape=connector;rounded=0;orthogonalLoop=1;jettySize=auto;html=1;exitX=1;exitY=0.3333333333333333;exitDx=0;exitDy=0;exitPerimeter=0;entryX=0;entryY=1;entryDx=0;entryDy=0;labelBackgroundColor=default;strokeColor=default;align=center;verticalAlign=middle;fontFamily=Helvetica;fontSize=11;fontColor=default;endArrow=classic;" edge="1" parent="1" source="8KkZ0bILGNVB6a9e__ru-14" target="8KkZ0bILGNVB6a9e__ru-27">
          <mxGeometry relative="1" as="geometry" />
        </mxCell>
        <mxCell id="8KkZ0bILGNVB6a9e__ru-56" style="edgeStyle=elbowEdgeStyle;shape=connector;rounded=0;orthogonalLoop=1;jettySize=auto;html=1;exitX=0;exitY=1;exitDx=0;exitDy=0;exitPerimeter=0;entryX=0.5;entryY=0;entryDx=0;entryDy=0;labelBackgroundColor=default;strokeColor=default;align=center;verticalAlign=middle;fontFamily=Helvetica;fontSize=11;fontColor=default;endArrow=classic;" edge="1" parent="1" source="8KkZ0bILGNVB6a9e__ru-14" target="8KkZ0bILGNVB6a9e__ru-29">
          <mxGeometry relative="1" as="geometry" />
        </mxCell>
        <mxCell id="8KkZ0bILGNVB6a9e__ru-14" value="Juez" style="shape=umlActor;verticalLabelPosition=bottom;verticalAlign=top;html=1;outlineConnect=0;fontFamily=Helvetica;fontSize=11;fontColor=default;strokeColor=#1C6FFF;" vertex="1" parent="1">
          <mxGeometry x="-38" y="445" width="30" height="60" as="geometry" />
        </mxCell>
        <mxCell id="8KkZ0bILGNVB6a9e__ru-32" value="" style="edgeStyle=elbowEdgeStyle;shape=connector;rounded=0;orthogonalLoop=1;jettySize=auto;html=1;labelBackgroundColor=default;strokeColor=default;align=center;verticalAlign=middle;fontFamily=Helvetica;fontSize=11;fontColor=default;endArrow=classic;" edge="1" parent="1" source="8KkZ0bILGNVB6a9e__ru-15" target="8KkZ0bILGNVB6a9e__ru-31">
          <mxGeometry relative="1" as="geometry" />
        </mxCell>
        <mxCell id="8KkZ0bILGNVB6a9e__ru-59" style="edgeStyle=elbowEdgeStyle;shape=connector;rounded=0;orthogonalLoop=1;jettySize=auto;html=1;exitX=0;exitY=1;exitDx=0;exitDy=0;exitPerimeter=0;entryX=1;entryY=0.5;entryDx=0;entryDy=0;labelBackgroundColor=default;strokeColor=default;align=center;verticalAlign=middle;fontFamily=Helvetica;fontSize=11;fontColor=default;endArrow=classic;" edge="1" parent="1" source="8KkZ0bILGNVB6a9e__ru-15" target="8KkZ0bILGNVB6a9e__ru-30">
          <mxGeometry relative="1" as="geometry" />
        </mxCell>
        <mxCell id="8KkZ0bILGNVB6a9e__ru-60" style="edgeStyle=elbowEdgeStyle;shape=connector;rounded=0;orthogonalLoop=1;jettySize=auto;html=1;exitX=1;exitY=0.3333333333333333;exitDx=0;exitDy=0;exitPerimeter=0;entryX=0;entryY=0.5;entryDx=0;entryDy=0;labelBackgroundColor=default;strokeColor=default;align=center;verticalAlign=middle;fontFamily=Helvetica;fontSize=11;fontColor=default;endArrow=classic;" edge="1" parent="1" source="8KkZ0bILGNVB6a9e__ru-15" target="8KkZ0bILGNVB6a9e__ru-33">
          <mxGeometry relative="1" as="geometry" />
        </mxCell>
        <mxCell id="8KkZ0bILGNVB6a9e__ru-62" style="edgeStyle=elbowEdgeStyle;shape=connector;rounded=0;orthogonalLoop=1;jettySize=auto;html=1;exitX=1;exitY=1;exitDx=0;exitDy=0;exitPerimeter=0;entryX=0;entryY=0;entryDx=0;entryDy=0;labelBackgroundColor=default;strokeColor=default;align=center;verticalAlign=middle;fontFamily=Helvetica;fontSize=11;fontColor=default;endArrow=classic;" edge="1" parent="1" source="8KkZ0bILGNVB6a9e__ru-15" target="8KkZ0bILGNVB6a9e__ru-34">
          <mxGeometry relative="1" as="geometry" />
        </mxCell>
        <mxCell id="8KkZ0bILGNVB6a9e__ru-15" value="Capitan de equipo" style="shape=umlActor;verticalLabelPosition=bottom;verticalAlign=top;html=1;outlineConnect=0;fontFamily=Helvetica;fontSize=11;fontColor=default;strokeColor=#1C6FFF;" vertex="1" parent="1">
          <mxGeometry x="190" y="526" width="30" height="60" as="geometry" />
        </mxCell>
        <mxCell id="8KkZ0bILGNVB6a9e__ru-16" value="Modificar informacion general de torneo" style="ellipse;whiteSpace=wrap;html=1;fontFamily=Helvetica;fontSize=11;fontColor=default;" vertex="1" parent="1">
          <mxGeometry x="130" y="80" width="160" height="80" as="geometry" />
        </mxCell>
        <mxCell id="8KkZ0bILGNVB6a9e__ru-17" value="Crear torneo" style="ellipse;whiteSpace=wrap;html=1;fontFamily=Helvetica;fontSize=11;fontColor=default;strokeColor=#3014BA;" vertex="1" parent="1">
          <mxGeometry x="190" y="186" width="150" height="54" as="geometry" />
        </mxCell>
        <mxCell id="8KkZ0bILGNVB6a9e__ru-19" value="Eliminar torneo" style="ellipse;whiteSpace=wrap;html=1;fontFamily=Helvetica;fontSize=11;fontColor=default;" vertex="1" parent="1">
          <mxGeometry x="195" y="256" width="140" height="54" as="geometry" />
        </mxCell>
        <mxCell id="8KkZ0bILGNVB6a9e__ru-20" value="CRUD Grupos" style="ellipse;whiteSpace=wrap;html=1;fontFamily=Helvetica;fontSize=11;fontColor=default;" vertex="1" parent="1">
          <mxGeometry x="-20" y="80" width="120" height="50" as="geometry" />
        </mxCell>
        <mxCell id="8KkZ0bILGNVB6a9e__ru-21" value="CRUD&amp;nbsp; rol de juegos" style="ellipse;whiteSpace=wrap;html=1;fontFamily=Helvetica;fontSize=11;fontColor=default;" vertex="1" parent="1">
          <mxGeometry x="-110" y="136" width="120" height="54" as="geometry" />
        </mxCell>
        <mxCell id="8KkZ0bILGNVB6a9e__ru-22" value="Autoriza cambio de equipo" style="ellipse;whiteSpace=wrap;html=1;fontFamily=Helvetica;fontSize=11;fontColor=default;" vertex="1" parent="1">
          <mxGeometry x="-130" y="210" width="140" height="54" as="geometry" />
        </mxCell>
        <mxCell id="8KkZ0bILGNVB6a9e__ru-23" value="Autorizar capitan" style="ellipse;whiteSpace=wrap;html=1;fontFamily=Helvetica;fontSize=11;fontColor=default;" vertex="1" parent="1">
          <mxGeometry x="-120" y="286" width="120" height="44" as="geometry" />
        </mxCell>
        <mxCell id="8KkZ0bILGNVB6a9e__ru-26" value="Cancela Torneo" style="ellipse;whiteSpace=wrap;html=1;fontFamily=Helvetica;fontSize=11;fontColor=default;" vertex="1" parent="1">
          <mxGeometry x="185" y="356" width="120" height="40" as="geometry" />
        </mxCell>
        <mxCell id="8KkZ0bILGNVB6a9e__ru-27" value="Registrar resultado de un juego" style="ellipse;whiteSpace=wrap;html=1;fontFamily=Helvetica;fontSize=11;fontColor=default;" vertex="1" parent="1">
          <mxGeometry x="30" y="396" width="120" height="54" as="geometry" />
        </mxCell>
        <mxCell id="8KkZ0bILGNVB6a9e__ru-28" value="Consultar cedula de juego" style="ellipse;whiteSpace=wrap;html=1;fontFamily=Helvetica;fontSize=11;fontColor=default;" vertex="1" parent="1">
          <mxGeometry x="30" y="500" width="120" height="50" as="geometry" />
        </mxCell>
        <mxCell id="8KkZ0bILGNVB6a9e__ru-29" value="Create, Update cedula Juego" style="ellipse;whiteSpace=wrap;html=1;fontFamily=Helvetica;fontSize=11;fontColor=default;" vertex="1" parent="1">
          <mxGeometry x="-120" y="560" width="120" height="60" as="geometry" />
        </mxCell>
        <mxCell id="8KkZ0bILGNVB6a9e__ru-30" value="Consultar token de autorización" style="ellipse;whiteSpace=wrap;html=1;fontFamily=Helvetica;fontSize=11;fontColor=default;" vertex="1" parent="1">
          <mxGeometry x="20" y="620" width="120" height="60" as="geometry" />
        </mxCell>
        <mxCell id="8KkZ0bILGNVB6a9e__ru-31" value="Cambiar capitán" style="ellipse;whiteSpace=wrap;html=1;fontFamily=Helvetica;fontSize=11;fontColor=default;" vertex="1" parent="1">
          <mxGeometry x="150" y="680" width="120" height="80" as="geometry" />
        </mxCell>
        <mxCell id="8KkZ0bILGNVB6a9e__ru-33" value="Inscribir equipo" style="ellipse;whiteSpace=wrap;html=1;fontFamily=Helvetica;fontSize=11;fontColor=default;" vertex="1" parent="1">
          <mxGeometry x="270" y="510" width="120" height="60" as="geometry" />
        </mxCell>
        <mxCell id="8KkZ0bILGNVB6a9e__ru-34" value="Aceptar jugador" style="ellipse;whiteSpace=wrap;html=1;fontFamily=Helvetica;fontSize=11;fontColor=default;" vertex="1" parent="1">
          <mxGeometry x="305" y="640" width="120" height="80" as="geometry" />
        </mxCell>
        <mxCell id="8KkZ0bILGNVB6a9e__ru-35" value="El equipo se inscribe a un Torneo en particular.&amp;nbsp;&lt;br&gt;Al inscribir el equipo obtendrá un token de autorización para que los jugadores se den de alta en su equipo y otro para cambios" style="shape=note;whiteSpace=wrap;html=1;backgroundOutline=1;darkOpacity=0.05;fontFamily=Helvetica;fontSize=11;fontColor=default;" vertex="1" parent="1">
          <mxGeometry x="488" y="640" width="252" height="90" as="geometry" />
        </mxCell>
        <mxCell id="8KkZ0bILGNVB6a9e__ru-37" value="" style="endArrow=none;dashed=1;html=1;rounded=0;labelBackgroundColor=default;strokeColor=default;align=center;verticalAlign=middle;fontFamily=Helvetica;fontSize=11;fontColor=default;shape=connector;exitX=0.5;exitY=0;exitDx=0;exitDy=0;exitPerimeter=0;" edge="1" parent="1" source="8KkZ0bILGNVB6a9e__ru-1">
          <mxGeometry width="50" height="50" relative="1" as="geometry">
            <mxPoint x="570" y="230" as="sourcePoint" />
            <mxPoint x="570" y="150" as="targetPoint" />
            <Array as="points" />
          </mxGeometry>
        </mxCell>
        <mxCell id="8KkZ0bILGNVB6a9e__ru-39" style="edgeStyle=elbowEdgeStyle;shape=connector;rounded=0;orthogonalLoop=1;jettySize=auto;html=1;exitX=1;exitY=0.3333333333333333;exitDx=0;exitDy=0;exitPerimeter=0;entryX=0.014;entryY=0.434;entryDx=0;entryDy=0;entryPerimeter=0;labelBackgroundColor=default;strokeColor=default;align=center;verticalAlign=middle;fontFamily=Helvetica;fontSize=11;fontColor=default;endArrow=classic;" edge="1" parent="1" source="8KkZ0bILGNVB6a9e__ru-1" target="8KkZ0bILGNVB6a9e__ru-5">
          <mxGeometry relative="1" as="geometry" />
        </mxCell>
        <mxCell id="8KkZ0bILGNVB6a9e__ru-44" style="edgeStyle=elbowEdgeStyle;shape=connector;rounded=0;orthogonalLoop=1;jettySize=auto;html=1;exitX=1;exitY=1;exitDx=0;exitDy=0;exitPerimeter=0;entryX=0.024;entryY=0.277;entryDx=0;entryDy=0;entryPerimeter=0;labelBackgroundColor=default;strokeColor=default;align=center;verticalAlign=middle;fontFamily=Helvetica;fontSize=11;fontColor=default;endArrow=classic;" edge="1" parent="1" source="8KkZ0bILGNVB6a9e__ru-13" target="8KkZ0bILGNVB6a9e__ru-26">
          <mxGeometry relative="1" as="geometry" />
        </mxCell>
        <mxCell id="8KkZ0bILGNVB6a9e__ru-46" value="" style="endArrow=none;html=1;rounded=0;labelBackgroundColor=default;strokeColor=default;align=center;verticalAlign=middle;fontFamily=Helvetica;fontSize=11;fontColor=default;shape=connector;entryX=0;entryY=0.5;entryDx=0;entryDy=0;" edge="1" parent="1" target="8KkZ0bILGNVB6a9e__ru-7">
          <mxGeometry width="50" height="50" relative="1" as="geometry">
            <mxPoint x="130" y="270" as="sourcePoint" />
            <mxPoint x="180" y="220" as="targetPoint" />
            <Array as="points">
              <mxPoint x="200" y="340" />
            </Array>
          </mxGeometry>
        </mxCell>
        <mxCell id="8KkZ0bILGNVB6a9e__ru-49" style="edgeStyle=elbowEdgeStyle;shape=connector;rounded=0;orthogonalLoop=1;jettySize=auto;html=1;exitX=0.5;exitY=0;exitDx=0;exitDy=0;exitPerimeter=0;entryX=0.039;entryY=0.752;entryDx=0;entryDy=0;entryPerimeter=0;labelBackgroundColor=default;strokeColor=default;align=center;verticalAlign=middle;fontFamily=Helvetica;fontSize=11;fontColor=default;endArrow=classic;" edge="1" parent="1" source="8KkZ0bILGNVB6a9e__ru-13" target="8KkZ0bILGNVB6a9e__ru-16">
          <mxGeometry relative="1" as="geometry" />
        </mxCell>
        <mxCell id="8KkZ0bILGNVB6a9e__ru-50" style="edgeStyle=elbowEdgeStyle;shape=connector;rounded=0;orthogonalLoop=1;jettySize=auto;html=1;exitX=0.25;exitY=0.1;exitDx=0;exitDy=0;exitPerimeter=0;entryX=0.693;entryY=1.066;entryDx=0;entryDy=0;entryPerimeter=0;labelBackgroundColor=default;strokeColor=default;align=center;verticalAlign=middle;fontFamily=Helvetica;fontSize=11;fontColor=default;endArrow=classic;" edge="1" parent="1" source="8KkZ0bILGNVB6a9e__ru-13" target="8KkZ0bILGNVB6a9e__ru-20">
          <mxGeometry relative="1" as="geometry" />
        </mxCell>
        <mxCell id="8KkZ0bILGNVB6a9e__ru-51" style="edgeStyle=elbowEdgeStyle;shape=connector;rounded=0;orthogonalLoop=1;jettySize=auto;html=1;exitX=0;exitY=0.3333333333333333;exitDx=0;exitDy=0;exitPerimeter=0;entryX=1.015;entryY=0.584;entryDx=0;entryDy=0;entryPerimeter=0;labelBackgroundColor=default;strokeColor=default;align=center;verticalAlign=middle;fontFamily=Helvetica;fontSize=11;fontColor=default;endArrow=classic;" edge="1" parent="1" source="8KkZ0bILGNVB6a9e__ru-13" target="8KkZ0bILGNVB6a9e__ru-22">
          <mxGeometry relative="1" as="geometry" />
        </mxCell>
        <mxCell id="8KkZ0bILGNVB6a9e__ru-52" style="edgeStyle=elbowEdgeStyle;shape=connector;rounded=0;orthogonalLoop=1;jettySize=auto;html=1;exitX=0;exitY=1;exitDx=0;exitDy=0;exitPerimeter=0;entryX=1.026;entryY=0.62;entryDx=0;entryDy=0;entryPerimeter=0;labelBackgroundColor=default;strokeColor=default;align=center;verticalAlign=middle;fontFamily=Helvetica;fontSize=11;fontColor=default;endArrow=classic;" edge="1" parent="1" source="8KkZ0bILGNVB6a9e__ru-13" target="8KkZ0bILGNVB6a9e__ru-23">
          <mxGeometry relative="1" as="geometry">
            <Array as="points">
              <mxPoint x="60" y="320" />
            </Array>
          </mxGeometry>
        </mxCell>
        <mxCell id="8KkZ0bILGNVB6a9e__ru-53" style="edgeStyle=elbowEdgeStyle;shape=connector;rounded=0;orthogonalLoop=1;jettySize=auto;html=1;exitX=0.25;exitY=0.1;exitDx=0;exitDy=0;exitPerimeter=0;entryX=0.977;entryY=0.639;entryDx=0;entryDy=0;entryPerimeter=0;labelBackgroundColor=default;strokeColor=default;align=center;verticalAlign=middle;fontFamily=Helvetica;fontSize=11;fontColor=default;endArrow=classic;" edge="1" parent="1" source="8KkZ0bILGNVB6a9e__ru-13" target="8KkZ0bILGNVB6a9e__ru-21">
          <mxGeometry relative="1" as="geometry" />
        </mxCell>
        <mxCell id="8KkZ0bILGNVB6a9e__ru-55" style="edgeStyle=elbowEdgeStyle;shape=connector;rounded=0;orthogonalLoop=1;jettySize=auto;html=1;exitX=1;exitY=0.3333333333333333;exitDx=0;exitDy=0;exitPerimeter=0;entryX=0;entryY=0.4;entryDx=0;entryDy=0;entryPerimeter=0;labelBackgroundColor=default;strokeColor=default;align=center;verticalAlign=middle;fontFamily=Helvetica;fontSize=11;fontColor=default;endArrow=classic;" edge="1" parent="1" source="8KkZ0bILGNVB6a9e__ru-14" target="8KkZ0bILGNVB6a9e__ru-28">
          <mxGeometry relative="1" as="geometry" />
        </mxCell>
        <mxCell id="8KkZ0bILGNVB6a9e__ru-58" style="edgeStyle=elbowEdgeStyle;shape=connector;rounded=0;orthogonalLoop=1;jettySize=auto;html=1;exitX=1;exitY=0.5;exitDx=0;exitDy=0;entryX=0;entryY=0.3333333333333333;entryDx=0;entryDy=0;entryPerimeter=0;labelBackgroundColor=default;strokeColor=default;align=center;verticalAlign=middle;fontFamily=Helvetica;fontSize=11;fontColor=default;endArrow=classic;" edge="1" parent="1" source="8KkZ0bILGNVB6a9e__ru-28" target="8KkZ0bILGNVB6a9e__ru-15">
          <mxGeometry relative="1" as="geometry" />
        </mxCell>
        <mxCell id="8KkZ0bILGNVB6a9e__ru-61" value="" style="endArrow=none;dashed=1;html=1;dashPattern=1 3;strokeWidth=2;rounded=0;labelBackgroundColor=default;strokeColor=default;align=center;verticalAlign=middle;fontFamily=Helvetica;fontSize=11;fontColor=default;shape=connector;exitX=0;exitY=0;exitDx=0;exitDy=0;exitPerimeter=0;" edge="1" parent="1" source="8KkZ0bILGNVB6a9e__ru-35">
          <mxGeometry width="50" height="50" relative="1" as="geometry">
            <mxPoint x="280" y="620" as="sourcePoint" />
            <mxPoint x="330" y="570" as="targetPoint" />
          </mxGeometry>
        </mxCell>
      </root>
    </mxGraphModel>
  </diagram>
</mxfile>
